<svg width="544" height="547" xmlns="http://www.w3.org/2000/svg" xmlns:xlink="http://www.w3.org/1999/xlink" xml:space="preserve" overflow="hidden"><defs><clipPath id="clip0"><rect x="369" y="135" width="542" height="546"/></clipPath><clipPath id="clip1"><rect x="369" y="135" width="542" height="546"/></clipPath><clipPath id="clip2"><rect x="369" y="135" width="542" height="546"/></clipPath></defs><g transform="translate(-368 -134)"><g><g clip-path="url(#clip0)"><g clip-path="url(#clip1)"><g clip-path="url(#clip2)"><path d="M0 0 540.991 0 540.991 546 0 546Z" fill="#003153" fill-rule="nonzero" fill-opacity="1" transform="matrix(1.00187 0 0 1 369 135)"/><path d="M22.8991 15.0275 30.055 7.87156 470.147 7.87156 470.147 299.119 462.991 306.275 22.8991 306.275 22.8991 15.0275Z" stroke="#D9D3D0" stroke-width="0.715596" stroke-linecap="butt" stroke-linejoin="miter" stroke-miterlimit="4" stroke-opacity="1" fill="#003153" fill-rule="nonzero" fill-opacity="1" transform="matrix(1.00187 0 0 1 369 135)"/><path d="M462.991 15.0275 470.147 7.87156" stroke="#D9D3D0" stroke-width="0.715596" stroke-linecap="butt" stroke-linejoin="miter" stroke-miterlimit="4" stroke-opacity="1" fill="#000000" fill-rule="nonzero" fill-opacity="1" transform="matrix(1.00187 0 0 1 369 135)"/><path d="M22.8991 15.0275 462.991 15.0275" stroke="#D9D3D0" stroke-width="0.715596" stroke-linecap="butt" stroke-linejoin="miter" stroke-miterlimit="4" stroke-opacity="1" fill="none" fill-rule="nonzero" transform="matrix(1.00187 0 0 1 369 135)"/><path d="M462.991 15.0275 462.991 306.275" stroke="#D9D3D0" stroke-width="0.715596" stroke-linecap="butt" stroke-linejoin="miter" stroke-miterlimit="4" stroke-opacity="1" fill="none" fill-rule="nonzero" transform="matrix(1.00187 0 0 1 369 135)"/><text fill="#D9D3D0" fill-opacity="1" font-family="Verdana,Verdana_MSFontService,sans-serif" font-style="normal" font-variant="normal" font-weight="700" font-stretch="normal" font-size="14" text-anchor="start" direction="ltr" writing-mode="lr-tb" unicode-bidi="normal" text-decoration="none" transform="matrix(0.716931 0 0 0.715596 587.664 161)">frontend</text><path d="M137.752 53.6697 210.028 53.6697C210.886 53.9299 211.556 54.6011 211.817 55.4587L216.826 69.6253 265.844 69.6253C266.832 69.6253 267.633 70.4263 267.633 71.4143L267.633 287.312C267.633 288.3 266.832 289.101 265.844 289.101L137.752 289.101C136.764 289.101 135.963 288.3 135.963 287.312L135.963 55.4587C135.963 54.4707 136.764 53.6697 137.752 53.6697" stroke="#D9D3D0" stroke-width="0.715596" stroke-linecap="butt" stroke-linejoin="miter" stroke-miterlimit="4" stroke-opacity="1" fill="#003153" fill-rule="nonzero" fill-opacity="1" transform="matrix(1.00187 0 0 1 369 135)"/><path d="M135.963 69.6253 216.826 69.6253" stroke="#D9D3D0" stroke-width="0.715596" stroke-linecap="butt" stroke-linejoin="miter" stroke-miterlimit="4" stroke-opacity="1" fill="none" fill-rule="nonzero" transform="matrix(1.00187 0 0 1 369 135)"/><text fill="#D9D3D0" fill-opacity="1" font-family="Verdana,Verdana_MSFontService,sans-serif" font-style="normal" font-variant="normal" font-weight="700" font-stretch="normal" font-size="14" text-anchor="start" direction="ltr" writing-mode="lr-tb" unicode-bidi="normal" text-decoration="none" transform="matrix(0.716931 0 0 0.715596 508.085 199)">components</text><path d="M292.321 47.945 340.266 47.945C341.124 48.2051 341.795 48.8763 342.055 49.7339L347.064 63.9005 445.459 63.9005C446.447 63.9005 447.248 64.7015 447.248 65.6895L447.248 203.587C447.248 204.575 446.447 205.376 445.459 205.376L292.321 205.376C291.333 205.376 290.532 204.575 290.532 203.587L290.532 49.7339C290.532 48.7459 291.333 47.945 292.321 47.945" stroke="#D9D3D0" stroke-width="0.715596" stroke-linecap="butt" stroke-linejoin="miter" stroke-miterlimit="4" stroke-opacity="1" fill="#003153" fill-rule="nonzero" fill-opacity="1" transform="matrix(1.00187 0 0 1 369 135)"/><path d="M290.532 63.9005 347.064 63.9005" stroke="#D9D3D0" stroke-width="0.715596" stroke-linecap="butt" stroke-linejoin="miter" stroke-miterlimit="4" stroke-opacity="1" fill="none" fill-rule="nonzero" transform="matrix(1.00187 0 0 1 369 135)"/><text fill="#D9D3D0" fill-opacity="1" font-family="Verdana,Verdana_MSFontService,sans-serif" font-style="normal" font-variant="normal" font-weight="700" font-stretch="normal" font-size="14" text-anchor="start" direction="ltr" writing-mode="lr-tb" unicode-bidi="normal" text-decoration="none" transform="matrix(0.716931 0 0 0.715596 662.942 194)">services</text><path d="M370.679 359.229 377.835 352.073 528.826 352.073 528.826 526.679 521.67 533.835 370.679 533.835 370.679 359.229Z" stroke="#D9D3D0" stroke-width="0.715596" stroke-linecap="butt" stroke-linejoin="miter" stroke-miterlimit="4" stroke-opacity="1" fill="#003153" fill-rule="nonzero" fill-opacity="1" transform="matrix(1.00187 0 0 1 369 135)"/><path d="M521.67 359.229 528.826 352.073" stroke="#D9D3D0" stroke-width="0.715596" stroke-linecap="butt" stroke-linejoin="miter" stroke-miterlimit="4" stroke-opacity="1" fill="#000000" fill-rule="nonzero" fill-opacity="1" transform="matrix(1.00187 0 0 1 369 135)"/><path d="M370.679 359.229 521.67 359.229" stroke="#D9D3D0" stroke-width="0.715596" stroke-linecap="butt" stroke-linejoin="miter" stroke-miterlimit="4" stroke-opacity="1" fill="none" fill-rule="nonzero" transform="matrix(1.00187 0 0 1 369 135)"/><path d="M521.67 359.229 521.67 533.835" stroke="#D9D3D0" stroke-width="0.715596" stroke-linecap="butt" stroke-linejoin="miter" stroke-miterlimit="4" stroke-opacity="1" fill="none" fill-rule="nonzero" transform="matrix(1.00187 0 0 1 369 135)"/><text fill="#D9D3D0" fill-opacity="1" font-family="Verdana,Verdana_MSFontService,sans-serif" font-style="normal" font-variant="normal" font-weight="700" font-stretch="normal" font-size="14" text-anchor="start" direction="ltr" writing-mode="lr-tb" unicode-bidi="normal" text-decoration="none" transform="matrix(0.716931 0 0 0.715596 792.706 506)">backend</text><path d="M389.642 386.422 426.138 386.422C426.996 386.682 427.666 387.353 427.927 388.211L432.936 402.378 509.862 402.378C510.851 402.378 511.651 403.178 511.651 404.167L511.651 454.046C511.651 455.034 510.851 455.835 509.862 455.835L389.642 455.835C388.654 455.835 387.853 455.034 387.853 454.046L387.853 388.211C387.853 387.223 388.654 386.422 389.642 386.422" stroke="#D9D3D0" stroke-width="0.715596" stroke-linecap="butt" stroke-linejoin="miter" stroke-miterlimit="4" stroke-opacity="1" fill="#003153" fill-rule="nonzero" fill-opacity="1" transform="matrix(1.00187 0 0 1 369 135)"/><path d="M387.853 402.378 432.936 402.378" stroke="#D9D3D0" stroke-width="0.715596" stroke-linecap="butt" stroke-linejoin="miter" stroke-miterlimit="4" stroke-opacity="1" fill="none" fill-rule="nonzero" transform="matrix(1.00187 0 0 1 369 135)"/><text fill="#D9D3D0" fill-opacity="1" font-family="Verdana,Verdana_MSFontService,sans-serif" font-style="normal" font-variant="normal" font-weight="700" font-stretch="normal" font-size="14" text-anchor="start" direction="ltr" writing-mode="lr-tb" unicode-bidi="normal" text-decoration="none" transform="matrix(0.716931 0 0 0.715596 760.444 532)">server</text><path d="M120.578 78.7156C121.566 78.7156 122.367 79.5165 122.367 80.5046L122.367 110.056C122.367 111.045 121.566 111.845 120.578 111.845L74.0642 111.845C73.0762 111.845 72.2752 111.045 72.2752 110.056L72.2752 80.5046C72.2752 79.5166 73.0762 78.7156 74.0642 78.7156Z" stroke="#D9D3D0" stroke-width="0.715596" stroke-linecap="butt" stroke-linejoin="miter" stroke-miterlimit="4" stroke-opacity="1" fill="#003153" fill-rule="nonzero" fill-opacity="1" transform="matrix(1.00187 0 0 1 369 135)"/><path d="M108.055 82.2936 118.789 82.2936 118.789 89.4495 108.055 89.4495Z" stroke="#D9D3D0" stroke-width="0.715596" stroke-linecap="butt" stroke-linejoin="miter" stroke-miterlimit="4" stroke-opacity="1" fill="#003153" fill-rule="nonzero" fill-opacity="1" transform="matrix(1.00187 0 0 1 369 135)"/><path d="M106.624 83.7248 109.486 83.7248 109.486 85.156 106.624 85.156Z" stroke="#D9D3D0" stroke-width="0.715596" stroke-linecap="butt" stroke-linejoin="miter" stroke-miterlimit="4" stroke-opacity="1" fill="#003153" fill-rule="nonzero" fill-opacity="1" transform="matrix(1.00187 0 0 1 369 135)"/><path d="M106.624 86.5872 109.486 86.5872 109.486 88.0183 106.624 88.0183Z" stroke="#D9D3D0" stroke-width="0.715596" stroke-linecap="butt" stroke-linejoin="miter" stroke-miterlimit="4" stroke-opacity="1" fill="#003153" fill-rule="nonzero" fill-opacity="1" transform="matrix(1.00187 0 0 1 369 135)"/><text fill="#D9D3D0" fill-opacity="1" font-family="Verdana,Verdana_MSFontService,sans-serif" font-style="normal" font-variant="normal" font-weight="400" font-stretch="normal" font-size="14" text-anchor="start" direction="ltr" writing-mode="lr-tb" unicode-bidi="normal" text-decoration="none" transform="matrix(0.716931 0 0 0.715596 452.164 237)">App</text><path d="M373.183 247.239 421.128 247.239C421.986 247.499 422.657 248.17 422.917 249.028L427.927 263.194 438.303 263.194C439.291 263.194 440.092 263.995 440.092 264.983L440.092 273.57C440.092 274.559 439.291 275.359 438.303 275.359L373.183 275.359C372.195 275.359 371.395 274.559 371.395 273.57L371.395 249.028C371.395 248.039 372.195 247.239 373.183 247.239" stroke="#D9D3D0" stroke-width="0.715596" stroke-linecap="butt" stroke-linejoin="miter" stroke-miterlimit="4" stroke-opacity="1" fill="#003153" fill-rule="nonzero" fill-opacity="1" transform="matrix(1.00187 0 0 1 369 135)"/><path d="M371.395 263.194 427.927 263.194" stroke="#D9D3D0" stroke-width="0.715596" stroke-linecap="butt" stroke-linejoin="miter" stroke-miterlimit="4" stroke-opacity="1" fill="none" fill-rule="nonzero" transform="matrix(1.00187 0 0 1 369 135)"/><text fill="#D9D3D0" fill-opacity="1" font-family="Verdana,Verdana_MSFontService,sans-serif" font-style="normal" font-variant="normal" font-weight="700" font-stretch="normal" font-size="14" text-anchor="start" direction="ltr" writing-mode="lr-tb" unicode-bidi="normal" text-decoration="none" transform="matrix(0.716931 0 0 0.715596 748.257 394)">socket</text><path d="M46.5138 95.1743C46.5138 98.336 43.9507 100.899 40.789 100.899 37.6273 100.899 35.0642 98.336 35.0642 95.1743 35.0642 92.0126 37.6273 89.4495 40.789 89.4495 43.9507 89.4495 46.5138 92.0126 46.5138 95.1743Z" stroke="#D9D3D0" stroke-width="0.715596" stroke-linecap="butt" stroke-linejoin="miter" stroke-miterlimit="4" stroke-opacity="1" fill="#003153" fill-rule="nonzero" fill-opacity="1" transform="matrix(1.00187 0 0 1 369 135)"/><text fill="#D9D3D0" fill-opacity="1" font-family="Verdana,Verdana_MSFontService,sans-serif" font-style="normal" font-variant="normal" font-weight="400" font-stretch="normal" font-size="14" text-anchor="start" direction="ltr" writing-mode="lr-tb" unicode-bidi="normal" text-decoration="none" transform="matrix(0.716931 0 0 0.715596 376.886 252)">HTTP (:3001)</text><path d="M236.862 244.734C237.85 244.734 238.651 245.535 238.651 246.523L238.651 276.075C238.651 277.063 237.85 277.864 236.862 277.864L166.734 277.864C165.746 277.864 164.945 277.063 164.945 276.075L164.945 246.523C164.945 245.535 165.746 244.734 166.734 244.734Z" stroke="#D9D3D0" stroke-width="0.715596" stroke-linecap="butt" stroke-linejoin="miter" stroke-miterlimit="4" stroke-opacity="1" fill="#003153" fill-rule="nonzero" fill-opacity="1" transform="matrix(1.00187 0 0 1 369 135)"/><path d="M224.339 248.312 235.073 248.312 235.073 255.468 224.339 255.468Z" stroke="#D9D3D0" stroke-width="0.715596" stroke-linecap="butt" stroke-linejoin="miter" stroke-miterlimit="4" stroke-opacity="1" fill="#003153" fill-rule="nonzero" fill-opacity="1" transform="matrix(1.00187 0 0 1 369 135)"/><path d="M222.908 249.743 225.771 249.743 225.771 251.174 222.908 251.174Z" stroke="#D9D3D0" stroke-width="0.715596" stroke-linecap="butt" stroke-linejoin="miter" stroke-miterlimit="4" stroke-opacity="1" fill="#003153" fill-rule="nonzero" fill-opacity="1" transform="matrix(1.00187 0 0 1 369 135)"/><path d="M222.908 252.605 225.771 252.605 225.771 254.037 222.908 254.037Z" stroke="#D9D3D0" stroke-width="0.715596" stroke-linecap="butt" stroke-linejoin="miter" stroke-miterlimit="4" stroke-opacity="1" fill="#003153" fill-rule="nonzero" fill-opacity="1" transform="matrix(1.00187 0 0 1 369 135)"/><text fill="#D9D3D0" fill-opacity="1" font-family="Verdana,Verdana_MSFontService,sans-serif" font-style="normal" font-variant="normal" font-weight="400" font-stretch="normal" font-size="14" text-anchor="start" direction="ltr" writing-mode="lr-tb" unicode-bidi="normal" text-decoration="none" transform="matrix(0.716931 0 0 0.715596 545.007 403)">Terminal</text><path d="M250.101 155.284C251.089 155.284 251.89 156.085 251.89 157.073L251.89 186.625C251.89 187.613 251.089 188.414 250.101 188.414L153.495 188.414C152.507 188.414 151.706 187.613 151.706 186.625L151.706 157.073C151.706 156.085 152.507 155.284 153.495 155.284Z" stroke="#D9D3D0" stroke-width="0.715596" stroke-linecap="butt" stroke-linejoin="miter" stroke-miterlimit="4" stroke-opacity="1" fill="#003153" fill-rule="nonzero" fill-opacity="1" transform="matrix(1.00187 0 0 1 369 135)"/><path d="M237.578 158.862 248.312 158.862 248.312 166.018 237.578 166.018Z" stroke="#D9D3D0" stroke-width="0.715596" stroke-linecap="butt" stroke-linejoin="miter" stroke-miterlimit="4" stroke-opacity="1" fill="#003153" fill-rule="nonzero" fill-opacity="1" transform="matrix(1.00187 0 0 1 369 135)"/><path d="M236.147 160.294 239.009 160.294 239.009 161.725 236.147 161.725Z" stroke="#D9D3D0" stroke-width="0.715596" stroke-linecap="butt" stroke-linejoin="miter" stroke-miterlimit="4" stroke-opacity="1" fill="#003153" fill-rule="nonzero" fill-opacity="1" transform="matrix(1.00187 0 0 1 369 135)"/><path d="M236.147 163.156 239.009 163.156 239.009 164.587 236.147 164.587Z" stroke="#D9D3D0" stroke-width="0.715596" stroke-linecap="butt" stroke-linejoin="miter" stroke-miterlimit="4" stroke-opacity="1" fill="#003153" fill-rule="nonzero" fill-opacity="1" transform="matrix(1.00187 0 0 1 369 135)"/><text fill="#D9D3D0" fill-opacity="1" font-family="Verdana,Verdana_MSFontService,sans-serif" font-style="normal" font-variant="normal" font-weight="400" font-stretch="normal" font-size="14" text-anchor="start" direction="ltr" writing-mode="lr-tb" unicode-bidi="normal" text-decoration="none" transform="matrix(0.716931 0 0 0.715596 531.743 314)">ChatInterface</text><path d="M254.394 78.7156C255.383 78.7156 256.183 79.5165 256.183 80.5046L256.183 110.056C256.183 111.045 255.383 111.845 254.394 111.845L149.202 111.845C148.214 111.845 147.413 111.045 147.413 110.056L147.413 80.5046C147.413 79.5166 148.214 78.7156 149.202 78.7156Z" stroke="#D9D3D0" stroke-width="0.715596" stroke-linecap="butt" stroke-linejoin="miter" stroke-miterlimit="4" stroke-opacity="1" fill="#003153" fill-rule="nonzero" fill-opacity="1" transform="matrix(1.00187 0 0 1 369 135)"/><path d="M241.872 82.2936 252.605 82.2936 252.605 89.4495 241.872 89.4495Z" stroke="#D9D3D0" stroke-width="0.715596" stroke-linecap="butt" stroke-linejoin="miter" stroke-miterlimit="4" stroke-opacity="1" fill="#003153" fill-rule="nonzero" fill-opacity="1" transform="matrix(1.00187 0 0 1 369 135)"/><path d="M240.44 83.7248 243.303 83.7248 243.303 85.156 240.44 85.156Z" stroke="#D9D3D0" stroke-width="0.715596" stroke-linecap="butt" stroke-linejoin="miter" stroke-miterlimit="4" stroke-opacity="1" fill="#003153" fill-rule="nonzero" fill-opacity="1" transform="matrix(1.00187 0 0 1 369 135)"/><path d="M240.44 86.5872 243.303 86.5872 243.303 88.0183 240.44 88.0183Z" stroke="#D9D3D0" stroke-width="0.715596" stroke-linecap="butt" stroke-linejoin="miter" stroke-miterlimit="4" stroke-opacity="1" fill="#003153" fill-rule="nonzero" fill-opacity="1" transform="matrix(1.00187 0 0 1 369 135)"/><text fill="#D9D3D0" fill-opacity="1" font-family="Verdana,Verdana_MSFontService,sans-serif" font-style="normal" font-variant="normal" font-weight="400" font-stretch="normal" font-size="14" text-anchor="start" direction="ltr" writing-mode="lr-tb" unicode-bidi="normal" text-decoration="none" transform="matrix(0.716931 0 0 0.715596 527.442 237)">BannerSettings</text><path d="M395.725 155.284C396.713 155.284 397.514 156.085 397.514 157.073L397.514 186.625C397.514 187.613 396.713 188.414 395.725 188.414L309.853 188.414C308.865 188.414 308.064 187.613 308.064 186.625L308.064 157.073C308.064 156.085 308.865 155.284 309.853 155.284Z" stroke="#D9D3D0" stroke-width="0.715596" stroke-linecap="butt" stroke-linejoin="miter" stroke-miterlimit="4" stroke-opacity="1" fill="#003153" fill-rule="nonzero" fill-opacity="1" transform="matrix(1.00187 0 0 1 369 135)"/><path d="M383.202 158.862 393.936 158.862 393.936 166.018 383.202 166.018Z" stroke="#D9D3D0" stroke-width="0.715596" stroke-linecap="butt" stroke-linejoin="miter" stroke-miterlimit="4" stroke-opacity="1" fill="#003153" fill-rule="nonzero" fill-opacity="1" transform="matrix(1.00187 0 0 1 369 135)"/><path d="M381.771 160.294 384.633 160.294 384.633 161.725 381.771 161.725Z" stroke="#D9D3D0" stroke-width="0.715596" stroke-linecap="butt" stroke-linejoin="miter" stroke-miterlimit="4" stroke-opacity="1" fill="#003153" fill-rule="nonzero" fill-opacity="1" transform="matrix(1.00187 0 0 1 369 135)"/><path d="M381.771 163.156 384.633 163.156 384.633 164.587 381.771 164.587Z" stroke="#D9D3D0" stroke-width="0.715596" stroke-linecap="butt" stroke-linejoin="miter" stroke-miterlimit="4" stroke-opacity="1" fill="#003153" fill-rule="nonzero" fill-opacity="1" transform="matrix(1.00187 0 0 1 369 135)"/><text fill="#D9D3D0" fill-opacity="1" font-family="Verdana,Verdana_MSFontService,sans-serif" font-style="normal" font-variant="normal" font-weight="400" font-stretch="normal" font-size="14" text-anchor="start" direction="ltr" writing-mode="lr-tb" unicode-bidi="normal" text-decoration="none" transform="matrix(0.716931 0 0 0.715596 688.393 314)">chatService</text><path d="M414.688 78.7156C415.676 78.7156 416.477 79.5165 416.477 80.5046L416.477 110.056C416.477 111.045 415.676 111.845 414.688 111.845L309.495 111.845C308.507 111.845 307.706 111.045 307.706 110.056L307.706 80.5046C307.706 79.5166 308.507 78.7156 309.495 78.7156Z" stroke="#D9D3D0" stroke-width="0.715596" stroke-linecap="butt" stroke-linejoin="miter" stroke-miterlimit="4" stroke-opacity="1" fill="#003153" fill-rule="nonzero" fill-opacity="1" transform="matrix(1.00187 0 0 1 369 135)"/><path d="M402.165 82.2936 412.899 82.2936 412.899 89.4495 402.165 89.4495Z" stroke="#D9D3D0" stroke-width="0.715596" stroke-linecap="butt" stroke-linejoin="miter" stroke-miterlimit="4" stroke-opacity="1" fill="#003153" fill-rule="nonzero" fill-opacity="1" transform="matrix(1.00187 0 0 1 369 135)"/><path d="M400.734 83.7248 403.596 83.7248 403.596 85.156 400.734 85.156Z" stroke="#D9D3D0" stroke-width="0.715596" stroke-linecap="butt" stroke-linejoin="miter" stroke-miterlimit="4" stroke-opacity="1" fill="#003153" fill-rule="nonzero" fill-opacity="1" transform="matrix(1.00187 0 0 1 369 135)"/><path d="M400.734 86.5872 403.596 86.5872 403.596 88.0183 400.734 88.0183Z" stroke="#D9D3D0" stroke-width="0.715596" stroke-linecap="butt" stroke-linejoin="miter" stroke-miterlimit="4" stroke-opacity="1" fill="#003153" fill-rule="nonzero" fill-opacity="1" transform="matrix(1.00187 0 0 1 369 135)"/><text fill="#D9D3D0" fill-opacity="1" font-family="Verdana,Verdana_MSFontService,sans-serif" font-style="normal" font-variant="normal" font-weight="400" font-stretch="normal" font-size="14" text-anchor="start" direction="ltr" writing-mode="lr-tb" unicode-bidi="normal" text-decoration="none" transform="matrix(0.716931 0 0 0.715596 688.034 237)">settingsService</text><path d="M498.055 411.468C499.043 411.468 499.844 412.269 499.844 413.257L499.844 442.809C499.844 443.797 499.043 444.598 498.055 444.598L439.376 444.598C438.388 444.598 437.587 443.797 437.587 442.809L437.587 413.257C437.587 412.269 438.388 411.468 439.376 411.468Z" stroke="#D9D3D0" stroke-width="0.715596" stroke-linecap="butt" stroke-linejoin="miter" stroke-miterlimit="4" stroke-opacity="1" fill="#003153" fill-rule="nonzero" fill-opacity="1" transform="matrix(1.00187 0 0 1 369 135)"/><path d="M485.532 415.046 496.266 415.046 496.266 422.202 485.532 422.202Z" stroke="#D9D3D0" stroke-width="0.715596" stroke-linecap="butt" stroke-linejoin="miter" stroke-miterlimit="4" stroke-opacity="1" fill="#003153" fill-rule="nonzero" fill-opacity="1" transform="matrix(1.00187 0 0 1 369 135)"/><path d="M484.101 416.477 486.963 416.477 486.963 417.908 484.101 417.908Z" stroke="#D9D3D0" stroke-width="0.715596" stroke-linecap="butt" stroke-linejoin="miter" stroke-miterlimit="4" stroke-opacity="1" fill="#003153" fill-rule="nonzero" fill-opacity="1" transform="matrix(1.00187 0 0 1 369 135)"/><path d="M484.101 419.339 486.963 419.339 486.963 420.771 484.101 420.771Z" stroke="#D9D3D0" stroke-width="0.715596" stroke-linecap="butt" stroke-linejoin="miter" stroke-miterlimit="4" stroke-opacity="1" fill="#003153" fill-rule="nonzero" fill-opacity="1" transform="matrix(1.00187 0 0 1 369 135)"/><text fill="#D9D3D0" fill-opacity="1" font-family="Verdana,Verdana_MSFontService,sans-serif" font-style="normal" font-variant="normal" font-weight="400" font-stretch="normal" font-size="14" text-anchor="start" direction="ltr" writing-mode="lr-tb" unicode-bidi="normal" text-decoration="none" transform="matrix(0.716931 0 0 0.715596 818.157 570)">Server</text><path d="M411.468 427.927C411.468 431.088 408.905 433.651 405.743 433.651 402.581 433.651 400.018 431.088 400.018 427.927 400.018 424.765 402.581 422.202 405.743 422.202 408.905 422.202 411.468 424.765 411.468 427.927Z" stroke="#D9D3D0" stroke-width="0.715596" stroke-linecap="butt" stroke-linejoin="miter" stroke-miterlimit="4" stroke-opacity="1" fill="#003153" fill-rule="nonzero" fill-opacity="1" transform="matrix(1.00187 0 0 1 369 135)"/><text fill="#D9D3D0" fill-opacity="1" font-family="Verdana,Verdana_MSFontService,sans-serif" font-style="normal" font-variant="normal" font-weight="400" font-stretch="normal" font-size="14" text-anchor="start" direction="ltr" writing-mode="lr-tb" unicode-bidi="normal" text-decoration="none" transform="matrix(0.716931 0 0 0.715596 748.974 584)">Client WS</text><text fill="#D9D3D0" fill-opacity="1" font-family="Verdana,Verdana_MSFontService,sans-serif" font-style="normal" font-variant="normal" font-weight="400" font-stretch="normal" font-size="14" text-anchor="start" direction="ltr" writing-mode="lr-tb" unicode-bidi="normal" text-decoration="none" transform="matrix(0.716931 0 0 0.715596 748.974 596)">(:3000/ws)</text><path d="M404.67 496.624 411.826 489.468 517.018 489.468 517.018 515.442 509.862 522.598 404.67 522.598 404.67 496.624Z" stroke="#D9D3D0" stroke-width="0.715596" stroke-linecap="butt" stroke-linejoin="miter" stroke-miterlimit="4" stroke-opacity="1" fill="#003153" fill-rule="nonzero" fill-opacity="1" transform="matrix(1.00187 0 0 1 369 135)"/><path d="M509.862 496.624 517.018 489.468" stroke="#D9D3D0" stroke-width="0.715596" stroke-linecap="butt" stroke-linejoin="miter" stroke-miterlimit="4" stroke-opacity="1" fill="#000000" fill-rule="nonzero" fill-opacity="1" transform="matrix(1.00187 0 0 1 369 135)"/><path d="M404.67 496.624 509.862 496.624" stroke="#D9D3D0" stroke-width="0.715596" stroke-linecap="butt" stroke-linejoin="miter" stroke-miterlimit="4" stroke-opacity="1" fill="none" fill-rule="nonzero" transform="matrix(1.00187 0 0 1 369 135)"/><path d="M509.862 496.624 509.862 522.598" stroke="#D9D3D0" stroke-width="0.715596" stroke-linecap="butt" stroke-linejoin="miter" stroke-miterlimit="4" stroke-opacity="1" fill="none" fill-rule="nonzero" transform="matrix(1.00187 0 0 1 369 135)"/><text fill="#D9D3D0" fill-opacity="1" font-family="Verdana,Verdana_MSFontService,sans-serif" font-style="normal" font-variant="normal" font-weight="400" font-stretch="normal" font-size="14" text-anchor="start" direction="ltr" writing-mode="lr-tb" unicode-bidi="normal" text-decoration="none" transform="matrix(0.716931 0 0 0.715596 785.179 648)">AgentController</text><path d="M99.5094 111.678C103.582 136.29 114.251 184.34 138.826 216.826 147.333 228.071 155.953 235.207 167.398 242.382" stroke="#D9D3D0" stroke-width="0.715596" stroke-linecap="butt" stroke-linejoin="miter" stroke-miterlimit="4" stroke-opacity="1" fill="none" fill-rule="nonzero" transform="matrix(1.00187 0 0 1 369 135)"/><path d="M171.036 244.662 167.1 238.817 168.005 242.762 164.059 243.667 171.036 244.662Z" stroke="#D9D3D0" stroke-width="0.715596" stroke-linecap="butt" stroke-linejoin="miter" stroke-miterlimit="4" stroke-opacity="1" fill="#D9D3D0" fill-rule="nonzero" fill-opacity="1" transform="matrix(1.00187 0 0 1 369 135)"/><path d="M119.223 111.641C136.994 124.422 158.448 139.851 176.26 152.661" stroke="#D9D3D0" stroke-width="0.715596" stroke-linecap="butt" stroke-linejoin="miter" stroke-miterlimit="4" stroke-opacity="1" fill="none" fill-rule="nonzero" transform="matrix(1.00187 0 0 1 369 135)"/><path d="M179.746 155.168 176.188 149.084 176.841 153.079 172.846 153.732 179.746 155.168Z" stroke="#D9D3D0" stroke-width="0.715596" stroke-linecap="butt" stroke-linejoin="miter" stroke-miterlimit="4" stroke-opacity="1" fill="#D9D3D0" fill-rule="nonzero" fill-opacity="1" transform="matrix(1.00187 0 0 1 369 135)"/><path d="M122.42 95.1743C130.689 95.1743 134.664 95.1743 142.932 95.1743" stroke="#D9D3D0" stroke-width="0.715596" stroke-linecap="butt" stroke-linejoin="miter" stroke-miterlimit="4" stroke-opacity="1" fill="none" fill-rule="nonzero" transform="matrix(1.00187 0 0 1 369 135)"/><path d="M147.226 95.1743 140.786 92.3119 143.648 95.1743 140.786 98.0367 147.226 95.1743Z" stroke="#D9D3D0" stroke-width="0.715596" stroke-linecap="butt" stroke-linejoin="miter" stroke-miterlimit="4" stroke-opacity="1" fill="#D9D3D0" fill-rule="nonzero" fill-opacity="1" transform="matrix(1.00187 0 0 1 369 135)"/><path d="M251.932 171.743C270.58 171.743 284.935 171.743 303.582 171.743" stroke="#D9D3D0" stroke-width="0.715596" stroke-linecap="butt" stroke-linejoin="miter" stroke-miterlimit="4" stroke-opacity="1" fill="none" fill-rule="nonzero" transform="matrix(1.00187 0 0 1 369 135)"/><path d="M307.876 171.743 301.436 168.881 304.298 171.743 301.436 174.605 307.876 171.743Z" stroke="#D9D3D0" stroke-width="0.715596" stroke-linecap="butt" stroke-linejoin="miter" stroke-miterlimit="4" stroke-opacity="1" fill="#D9D3D0" fill-rule="nonzero" fill-opacity="1" transform="matrix(1.00187 0 0 1 369 135)"/><path d="M256.273 95.1743C273.359 95.1743 286.15 95.1743 303.235 95.1743" stroke="#D9D3D0" stroke-width="0.715596" stroke-linecap="butt" stroke-linejoin="miter" stroke-miterlimit="4" stroke-opacity="1" fill="none" fill-rule="nonzero" transform="matrix(1.00187 0 0 1 369 135)"/><path d="M307.529 95.1743 301.089 92.3119 303.951 95.1743 301.089 98.0367 307.529 95.1743Z" stroke="#D9D3D0" stroke-width="0.715596" stroke-linecap="butt" stroke-linejoin="miter" stroke-miterlimit="4" stroke-opacity="1" fill="#D9D3D0" fill-rule="nonzero" fill-opacity="1" transform="matrix(1.00187 0 0 1 369 135)"/><path d="M238.843 261.193C282.958 261.193 322.78 261.193 366.896 261.193" stroke="#D9D3D0" stroke-width="0.715596" stroke-linecap="butt" stroke-linejoin="miter" stroke-miterlimit="4" stroke-opacity="1" fill="none" fill-rule="nonzero" transform="matrix(1.00187 0 0 1 369 135)"/><path d="M371.19 261.193 364.749 258.33 367.612 261.193 364.749 264.055 371.19 261.193Z" stroke="#D9D3D0" stroke-width="0.715596" stroke-linecap="butt" stroke-linejoin="miter" stroke-miterlimit="4" stroke-opacity="1" fill="#D9D3D0" fill-rule="nonzero" fill-opacity="1" transform="matrix(1.00187 0 0 1 369 135)"/><path d="M362.379 188.398C372.453 205.143 385.911 227.513 395.399 243.284" stroke="#D9D3D0" stroke-width="0.715596" stroke-linecap="butt" stroke-linejoin="miter" stroke-miterlimit="4" stroke-opacity="1" fill="none" fill-rule="nonzero" transform="matrix(1.00187 0 0 1 369 135)"/><path d="M397.613 246.963 396.745 239.969 395.768 243.897 391.84 242.92 397.613 246.963Z" stroke="#D9D3D0" stroke-width="0.715596" stroke-linecap="butt" stroke-linejoin="miter" stroke-miterlimit="4" stroke-opacity="1" fill="#D9D3D0" fill-rule="nonzero" fill-opacity="1" transform="matrix(1.00187 0 0 1 369 135)"/><path d="M380.106 111.848C391.07 122.821 404.078 138.416 410.037 155.284 421.117 186.65 415.268 222.409 410.386 242.876" stroke="#D9D3D0" stroke-width="0.715596" stroke-linecap="butt" stroke-linejoin="miter" stroke-miterlimit="4" stroke-opacity="1" fill="none" fill-rule="nonzero" transform="matrix(1.00187 0 0 1 369 135)"/><path d="M409.39 247.052 413.668 241.452 410.22 243.572 408.1 240.123 409.39 247.052Z" stroke="#D9D3D0" stroke-width="0.715596" stroke-linecap="butt" stroke-linejoin="miter" stroke-miterlimit="4" stroke-opacity="1" fill="#D9D3D0" fill-rule="nonzero" fill-opacity="1" transform="matrix(1.00187 0 0 1 369 135)"/><path d="M47.4138 95.1743C55.6667 95.1743 63.9196 95.1743 72.1722 95.1743" stroke="#D9D3D0" stroke-width="0.715596" stroke-linecap="butt" stroke-linejoin="miter" stroke-miterlimit="4" stroke-opacity="1" fill="none" fill-rule="nonzero" transform="matrix(1.00187 0 0 1 369 135)"/><path d="M412.385 427.927C420.746 427.927 429.108 427.927 437.47 427.927" stroke="#D9D3D0" stroke-width="0.715596" stroke-linecap="butt" stroke-linejoin="miter" stroke-miterlimit="4" stroke-opacity="1" fill="none" fill-rule="nonzero" transform="matrix(1.00187 0 0 1 369 135)"/><path d="M467.085 444.507C465.734 457.648 464.262 471.959 462.912 485.095" stroke="#D9D3D0" stroke-width="0.715596" stroke-linecap="butt" stroke-linejoin="miter" stroke-miterlimit="4" stroke-opacity="1" fill="none" fill-rule="nonzero" transform="matrix(1.00187 0 0 1 369 135)"/><path d="M462.473 489.366 465.978 483.252 462.838 485.807 460.284 482.667 462.473 489.366Z" stroke="#D9D3D0" stroke-width="0.715596" stroke-linecap="butt" stroke-linejoin="miter" stroke-miterlimit="4" stroke-opacity="1" fill="#D9D3D0" fill-rule="nonzero" fill-opacity="1" transform="matrix(1.00187 0 0 1 369 135)"/><path d="M405.743 275.156C405.743 309.019 405.743 393.441 405.743 417.067" stroke="#D9D3D0" stroke-width="0.715596" stroke-linecap="butt" stroke-linejoin="miter" stroke-miterlimit="4" stroke-opacity="1" fill="none" fill-rule="nonzero" transform="matrix(1.00187 0 0 1 369 135)"/><path d="M405.743 421.36 408.605 414.92 405.743 417.782 402.881 414.92 405.743 421.36Z" stroke="#D9D3D0" stroke-width="0.715596" stroke-linecap="butt" stroke-linejoin="miter" stroke-miterlimit="4" stroke-opacity="1" fill="#D9D3D0" fill-rule="nonzero" fill-opacity="1" transform="matrix(1.00187 0 0 1 369 135)"/><text fill="#D9D3D0" fill-opacity="1" font-family="Verdana,Verdana_MSFontService,sans-serif" font-style="normal" font-variant="normal" font-weight="400" font-stretch="normal" font-size="13" text-anchor="start" direction="ltr" writing-mode="lr-tb" unicode-bidi="normal" text-decoration="none" transform="matrix(0.716931 0 0 0.715596 805.97 462)">connects to</text><text fill="#D9D3D0" fill-opacity="1" font-family="Verdana,Verdana_MSFontService,sans-serif" font-style="normal" font-variant="normal" font-weight="400" font-stretch="normal" font-size="13" text-anchor="start" direction="ltr" writing-mode="lr-tb" unicode-bidi="normal" text-decoration="none" transform="matrix(0.716931 0 0 0.715596 779.085 473)">VITE_TERMINAL_WS_URL</text></g></g></g></g></g></svg>